<svg width="212" height="214" viewBox="0 0 212 214" fill="none" xmlns="http://www.w3.org/2000/svg">
<path d="M98.9478 60.3604C103.178 52.3726 105.293 48.3787 107.573 46.3546C113.961 40.6822 123.581 40.6822 129.969 46.3546C132.249 48.3787 134.364 52.3726 138.594 60.3604L172.67 124.704C176.456 131.855 178.35 135.43 178.775 138.29C179.961 146.276 175.322 153.982 167.709 156.671C164.983 157.634 160.938 157.634 152.847 157.634H84.6955C76.6044 157.634 72.5589 157.634 69.8328 156.671C62.2203 153.982 57.581 146.276 58.7674 138.29C59.1923 135.43 61.0856 131.855 64.8723 124.705L98.9478 60.3604Z" fill="#EA9D9F"/>
<path d="M115.578 29.9345L104.084 51.2708L132.5 45.8571L115.578 29.9345Z" fill="#EA9D9F"/>
<path d="M94.7383 27.5292C99.72 18.8193 112.28 18.8193 117.262 27.5292L179.984 137.193C184.931 145.842 178.686 156.608 168.723 156.608H43.2773C33.3135 156.608 27.0687 145.842 32.0155 137.193L94.7383 27.5292Z" stroke="#1F3149" stroke-width="7.78418"/>
<rect x="99.375" y="60.6018" width="14.1964" height="37.8761" rx="7.09821" fill="white"/>
<rect x="106" y="60.6018" width="8.51785" height="37.8761" rx="4.25893" fill="#B35052"/>
<rect x="99.0164" y="59.9162" width="13.9672" height="39.3939" rx="6.98359" stroke="#1F3149" stroke-width="5.18945"/>
<rect x="43.4217" y="147.125" width="7.64288" height="17.8795" rx="3.82144" transform="rotate(-90 43.4217 147.125)" fill="#1F3149"/>
<rect x="150.699" y="147.125" width="7.64288" height="17.8795" rx="3.82144" transform="rotate(-90 150.699 147.125)" fill="#1F3149"/>
<ellipse cx="106" cy="117.19" rx="9.57831" ry="9.55357" fill="white"/>
<ellipse cx="110.259" cy="117.889" rx="4.25893" ry="4.26107" fill="#B35052"/>
<path d="M112.984 117.19C112.984 121.027 109.863 124.149 106 124.149C102.137 124.149 99.0164 121.027 99.0164 117.19C99.0164 113.354 102.137 110.232 106 110.232C109.863 110.232 112.984 113.354 112.984 117.19Z" stroke="#1F3149" stroke-width="5.18945"/>
<ellipse cx="70.241" cy="143.304" rx="3.83133" ry="3.82142" fill="#1F3149"/>
<ellipse cx="141.759" cy="143.304" rx="3.83133" ry="3.82142" fill="#1F3149"/>
</svg>
