<?xml version="1.0" encoding="utf-8"?>
<!-- Generator: Adobe Illustrator 16.0.0, SVG Export Plug-In . SVG Version: 6.00 Build 0)  -->
<!DOCTYPE svg PUBLIC "-//W3C//DTD SVG 1.1//EN" "http://www.w3.org/Graphics/SVG/1.1/DTD/svg11.dtd">
<svg version="1.1" id="Layer_1" xmlns="http://www.w3.org/2000/svg" xmlns:xlink="http://www.w3.org/1999/xlink" x="0px" y="0px"
	 width="159.215px" height="143.396px" viewBox="0.393 0.104 159.215 143.396" enable-background="new 0.393 0.104 159.215 143.396"
	 xml:space="preserve">
<path fill="#EA9D9F" d="M72.948,43.36c4.23-7.988,6.345-11.981,8.625-14.006c6.388-5.672,16.008-5.672,22.396,0
	c2.28,2.024,4.395,6.018,8.625,14.006l34.076,64.344c3.786,7.151,5.68,10.726,6.105,13.586c1.186,7.985-3.453,15.692-11.066,18.381
	c-2.727,0.963-6.771,0.963-14.861,0.963H58.695c-8.091,0-12.136,0-14.862-0.963c-7.613-2.688-12.252-10.396-11.065-18.381
	c0.425-2.86,2.318-6.435,6.104-13.585L72.948,43.36z"/>
<path fill="#EA9D9F" d="M89.578,12.935L78.084,34.271l28.416-5.414L89.578,12.935z"/>
<path fill="none" stroke="#1F3149" stroke-width="7.7842" d="M68.738,10.529c4.982-8.71,17.541-8.71,22.523,0l62.723,109.664
	c4.947,8.648-1.299,19.414-11.262,19.414H17.277c-9.964,0-16.208-10.766-11.262-19.414L68.738,10.529z"/>
<path fill="#FFFFFF" d="M80.473,43.602L80.473,43.602c3.92,0,7.098,3.178,7.098,7.099v23.68c0,3.92-3.178,7.098-7.098,7.098l0,0
	c-3.92,0-7.098-3.178-7.098-7.098V50.7C73.375,46.78,76.553,43.602,80.473,43.602z"/>
<path fill="#B35052" d="M84.259,43.602L84.259,43.602c2.353,0,4.259,1.907,4.259,4.259v29.358c0,2.353-1.906,4.259-4.259,4.259l0,0
	c-2.353,0-4.259-1.907-4.259-4.259V47.861C80,45.509,81.906,43.602,84.259,43.602z"/>
<path fill="none" stroke="#1F3149" stroke-width="5.1894" d="M80,42.916L80,42.916c3.857,0,6.983,3.127,6.983,6.984v25.427
	c0,3.857-3.126,6.983-6.983,6.983l0,0c-3.857,0-6.983-3.126-6.983-6.983V49.9C73.017,46.043,76.143,42.916,80,42.916z"/>
<path fill="#1F3149" d="M17.422,126.304L17.422,126.304c0-2.11,1.711-3.821,3.821-3.821H31.48c2.11,0,3.821,1.711,3.821,3.821l0,0
	c0,2.11-1.711,3.821-3.821,3.821H21.243C19.133,130.125,17.422,128.414,17.422,126.304z"/>
<path fill="#1F3149" d="M124.699,126.304L124.699,126.304c0-2.11,1.711-3.821,3.821-3.821h10.236c2.11,0,3.821,1.711,3.821,3.821
	l0,0c0,2.11-1.711,3.821-3.821,3.821h-10.236C126.41,130.125,124.699,128.414,124.699,126.304z"/>
<ellipse fill="#FFFFFF" cx="80" cy="100.19" rx="9.578" ry="9.554"/>
<ellipse fill="#B35052" cx="84.259" cy="100.889" rx="4.261" ry="4.261"/>
<path fill="none" stroke="#1F3149" stroke-width="5.1894" d="M86.984,100.189c0,3.838-3.121,6.959-6.984,6.959
	c-3.863,0-6.983-3.121-6.983-6.959c0-3.836,3.121-6.957,6.983-6.957C83.863,93.232,86.984,96.354,86.984,100.189z"/>
<ellipse fill="#1F3149" cx="44.241" cy="126.304" rx="3.831" ry="3.821"/>
<ellipse fill="#1F3149" cx="115.759" cy="126.304" rx="3.831" ry="3.821"/>
</svg>
