<svg width="152" height="40" viewBox="0 0 152 40" fill="none" xmlns="http://www.w3.org/2000/svg">
<path d="M69.7798 21.9516H60.0523V32H54.9859V7.41093H70.9958V11.5147H60.0523V17.8647H69.7798V21.9516ZM79.1102 32H74.2126V6.05988H79.1102V32ZM94.4358 30.1423C93.2311 31.6059 91.5648 32.3378 89.4369 32.3378C87.4779 32.3378 85.9805 31.7748 84.9447 30.649C83.9201 29.5231 83.3966 27.8737 83.3741 25.7007V13.7271H88.2547V25.5319C88.2547 27.4346 89.1217 28.3859 90.8555 28.3859C92.5105 28.3859 93.6477 27.8118 94.2669 26.6634V13.7271H99.1644V32H94.5709L94.4358 30.1423ZM111.602 32.3378C108.923 32.3378 106.738 31.5159 105.05 29.8721C103.372 28.2283 102.533 26.0385 102.533 23.3026V22.8298C102.533 20.9946 102.888 19.3564 103.597 17.9153C104.307 16.4629 105.309 15.3483 106.603 14.5715C107.909 13.7834 109.395 13.3893 111.062 13.3893C113.561 13.3893 115.526 14.1774 116.956 15.7536C118.397 17.3299 119.117 19.5647 119.117 22.4582V24.451H107.482C107.639 25.6444 108.112 26.6014 108.9 27.322C109.699 28.0426 110.707 28.4028 111.923 28.4028C113.803 28.4028 115.273 27.7217 116.331 26.3594L118.729 29.0446C117.997 30.0804 117.006 30.891 115.757 31.4765C114.507 32.0507 113.122 32.3378 111.602 32.3378ZM111.045 17.3411C110.077 17.3411 109.289 17.6676 108.681 18.3206C108.084 18.9736 107.701 19.9081 107.532 21.1241H114.321V20.7356C114.299 19.6548 114.006 18.8217 113.443 18.2362C112.88 17.6395 112.081 17.3411 111.045 17.3411ZM126.742 13.7271L126.894 15.8381C128.2 14.2056 129.951 13.3893 132.146 13.3893C134.083 13.3893 135.524 13.9579 136.47 15.095C137.415 16.2321 137.899 17.9322 137.922 20.1952V32H133.041V20.3134C133.041 19.2776 132.816 18.5289 132.366 18.0673C131.915 17.5945 131.167 17.358 130.12 17.358C128.746 17.358 127.716 17.9435 127.029 19.1144V32H122.148V13.7271H126.742ZM147.826 9.23484V13.7271H150.951V17.3074H147.826V26.4269C147.826 27.1025 147.956 27.5866 148.215 27.8793C148.474 28.172 148.969 28.3184 149.701 28.3184C150.241 28.3184 150.72 28.279 151.137 28.2002V31.8987C150.18 32.1914 149.194 32.3378 148.181 32.3378C144.758 32.3378 143.013 30.6095 142.946 27.1531V17.3074H140.278V13.7271H142.946V9.23484H147.826Z" fill="white"/>
<path d="M7.1467 13.2568V35.6199H16.6093C21.5464 35.6199 22.7806 31.1734 22.7806 28.9502V21.1035H31.8319C40.0411 20.133 38.0032 11.6875 38.0032 6.19476H13.7294C8.13411 6.19476 7.00956 10.9028 7.1467 13.2568Z" fill="white"/>
<path d="M0.0107118 7.06204V29.4251H9.47336C14.4104 29.4251 15.6447 24.9787 15.6447 22.7554V14.9087H24.6959C32.9051 13.9382 30.8672 5.49269 30.8672 0H6.59343C0.99812 0 -0.126428 4.70802 0.0107118 7.06204Z" fill="#EA9D9F"/>
</svg>
